<svg version="1.0" xmlns="http://www.w3.org/2000/svg" preserveAspectRatio="xMidYMid meet" viewBox="0 45.2 512.02 412.3">

<g transform="translate(0.000000,512.000000) scale(0.100000,-0.100000)" fill="#000000" stroke="none">
<path d="M1001 4663 l256 -3 26 -28 c52 -57 197 -199 246 -242 66 -58 216 -139 258 -140 18 0 47 -6 65 -14 18 -8 53 -20 78 -26 25 -7 83 -26 130 -42 47 -17 125 -41 173 -54 49 -13 95 -28 104 -33 10 -5 -42 -11 -138 -14 -191 -8 -354 -21 -439 -37 -127 -24 -374 -89 -435 -115 -16 -7 -48 -18 -70 -25 -22 -7 -63 -23 -92 -36 -28 -13 -56 -24 -62 -24 -13 0 -124 -52 -131 -61 -14 -19 -184 -89 -247 -102 -39 -8 -75 -17 -80 -20 -17 -10 -157 -37 -194 -37 -19 0 -39 -4 -45 -9 -10 -10 -281 -41 -356 -41 l-48 0 0 -36 c0 -36 1 -36 33 -30 17 4 118 13 222 21 105 8 213 21 240 29 47 13 175 30 148 19 -7 -2 -13 -11 -13 -19 0 -8 -6 -14 -12 -14 -18 -1 -226 -214 -273 -280 -22 -30 -42 -57 -46 -60 -19 -15 -89 -137 -89 -155 0 -7 -6 -18 -14 -24 -7 -6 -19 -33 -26 -59 -7 -26 -16 -51 -20 -57 -13 -21 -31 -113 -29 -156 1 -24 -4 -69 -10 -99 -7 -30 -14 -68 -17 -85 -3 -16 -14 -49 -25 -73 -11 -24 -22 -57 -26 -74 -3 -16 -14 -35 -24 -41 -17 -11 -19 -26 -18 -157 1 -119 3 -135 10 -90 13 86 31 160 40 160 4 0 9 17 12 38 3 20 20 80 40 132 34 94 45 144 71 330 7 52 23 115 35 139 11 25 21 52 21 60 0 9 9 30 21 46 11 17 24 39 30 50 29 61 194 274 248 320 12 11 48 46 80 77 59 60 195 158 218 158 14 0 67 36 107 72 11 10 49 32 85 49 36 17 87 42 113 55 27 13 56 24 66 24 10 0 22 3 26 7 10 10 196 74 296 102 152 42 156 43 360 70 190 26 448 35 601 23 82 -7 161 -17 175 -22 14 -6 46 -10 71 -10 25 0 62 -4 82 -9 33 -8 69 -16 231 -52 30 -7 78 -23 107 -36 28 -12 56 -23 61 -23 14 0 178 -95 221 -129 24 -19 24 -19 -101 -19 -135 -1 -154 -5 -311 -76 -32 -14 -60 -26 -63 -26 -3 0 -18 -9 -33 -20 -15 -10 -58 -35 -94 -54 -70 -36 -156 -103 -157 -122 0 -6 -9 -19 -20 -29 -22 -20 -36 -48 -65 -129 -21 -57 -16 -156 10 -206 19 -37 113 -130 132 -130 7 0 13 -4 13 -10 0 -5 8 -10 18 -10 10 0 22 -4 28 -9 5 -5 34 -15 64 -24 200 -56 445 -56 710 -2 97 19 163 36 182 46 10 5 27 9 39 9 11 0 29 5 40 11 37 19 57 18 80 -7 12 -13 26 -24 31 -24 4 0 42 -25 84 -54 71 -52 74 -56 55 -68 -38 -24 -44 -21 209 -78 109 -25 180 -56 230 -101 35 -31 35 -32 34 -111 -1 -75 -15 -145 -35 -178 -5 -8 -12 -22 -16 -30 -4 -8 -11 -19 -15 -25 -5 -5 -18 -22 -29 -38 -18 -24 -41 -37 -134 -77 -100 -42 -444 -77 -473 -48 -9 9 -17 9 -36 -2 -27 -14 -117 -11 -311 11 -151 17 -173 24 -173 54 0 27 14 35 111 70 26 10 47 21 47 24 0 4 15 12 33 19 71 26 111 101 80 150 -23 35 -69 82 -81 82 -5 0 -15 7 -22 15 -7 8 -21 15 -31 15 -11 0 -19 4 -19 8 0 4 -26 17 -57 27 -79 27 -383 28 -452 2 -24 -10 -56 -17 -72 -17 -16 0 -29 -4 -29 -10 0 -5 -8 -10 -17 -10 -10 0 -38 -11 -62 -25 -23 -14 -51 -25 -61 -25 -10 0 -23 -7 -30 -15 -7 -8 -18 -15 -25 -15 -7 0 -45 -21 -85 -47 -60 -40 -76 -57 -96 -101 -32 -69 -30 -88 8 -124 48 -45 90 -60 207 -73 112 -13 384 -5 444 14 134 41 147 43 147 17 0 -13 -177 -157 -237 -192 -118 -71 -222 -130 -253 -144 -15 -8 -41 -20 -132 -59 -26 -12 -56 -21 -66 -21 -10 0 -22 -4 -28 -9 -9 -10 -30 -16 -164 -48 -36 -8 -125 -17 -198 -20 -116 -4 -141 -2 -202 17 -78 24 -87 40 -46 79 13 13 26 31 29 42 8 30 -29 24 -50 -8 -39 -61 -63 -68 -89 -28 -20 30 -11 44 47 77 38 21 50 38 28 38 -16 0 -52 -21 -72 -41 -44 -47 -71 -2 -65 107 3 49 13 88 32 127 43 92 161 226 199 227 9 0 17 5 17 10 0 6 6 10 14 10 8 0 18 5 22 11 4 8 -1 9 -17 4 -62 -19 -109 -48 -164 -102 -72 -71 -79 -80 -100 -129 -48 -112 -58 -190 -34 -255 22 -58 17 -76 -31 -114 -21 -16 -44 -40 -51 -52 -7 -13 -18 -23 -25 -23 -6 0 -15 -7 -18 -16 -23 -60 21 -42 99 41 l70 74 30 -23 c27 -22 29 -26 16 -49 -7 -14 -24 -31 -37 -38 -13 -7 -24 -18 -24 -26 0 -7 -4 -13 -9 -13 -14 0 -23 -32 -11 -44 7 -7 21 1 45 29 19 22 45 50 56 63 21 22 57 29 74 14 31 -25 97 -34 249 -34 202 1 313 21 471 87 17 7 41 17 55 23 14 5 57 25 95 43 l70 34 215 1 c201 1 221 3 305 28 117 34 119 34 101 -7 -8 -17 -29 -66 -47 -107 -33 -79 -74 -144 -115 -185 -13 -13 -24 -29 -24 -35 0 -5 -7 -10 -15 -10 -8 0 -15 -4 -15 -10 0 -5 -5 -10 -12 -10 -6 0 -19 -6 -27 -14 -9 -8 -38 -26 -66 -40 -27 -15 -57 -31 -65 -36 -27 -17 -124 -60 -134 -60 -12 -1 -158 -71 -179 -87 -17 -13 -162 -58 -232 -73 -33 -7 -69 -18 -80 -25 -11 -7 -31 -14 -45 -17 -14 -4 -70 -18 -125 -33 -55 -14 -134 -31 -175 -36 -75 -9 -115 -15 -264 -39 -135 -22 -608 20 -726 65 -25 9 -76 25 -115 35 -38 11 -83 23 -100 29 -16 5 -50 15 -75 21 -25 7 -58 19 -75 28 -16 8 -38 19 -47 24 -71 33 -232 119 -238 127 -5 7 -129 81 -136 81 -2 0 -22 18 -43 39 -50 50 -56 75 -19 79 49 6 74 64 42 97 -14 13 -14 20 -4 46 7 16 18 33 25 37 7 4 41 48 75 97 35 50 67 92 72 95 10 8 15 44 6 48 -23 7 -36 -2 -55 -36 -12 -20 -33 -48 -48 -62 -14 -13 -39 -47 -55 -75 -16 -27 -37 -57 -47 -66 -25 -22 -53 -58 -53 -67 0 -4 14 -15 31 -24 25 -15 28 -21 20 -37 -16 -29 -63 -36 -106 -15 -20 9 -37 15 -39 13 -1 -2 -13 -19 -25 -37 -21 -30 -27 -33 -65 -30 l-41 3 0 42 c0 23 -4 45 -8 49 -4 5 -7 -21 -5 -56 l3 -65 54 -3 c43 -2 61 1 82 17 51 38 82 24 116 -49 4 -8 12 -20 17 -26 16 -16 156 -106 196 -126 37 -19 72 -40 80 -48 3 -3 25 -14 50 -25 25 -11 47 -22 50 -25 9 -9 74 -38 145 -63 117 -42 115 -41 61 -45 -54 -4 -76 -19 -76 -54 0 -36 19 -48 78 -48 45 0 57 -4 73 -24 11 -14 35 -30 54 -36 29 -10 42 -9 75 6 22 10 40 21 40 26 0 4 14 8 31 8 17 0 44 9 60 21 18 13 36 18 47 14 65 -26 427 -46 607 -34 123 8 163 13 227 30 20 5 73 14 118 20 75 9 87 8 135 -12 52 -21 53 -21 109 -4 31 10 66 28 79 40 22 23 28 25 104 45 31 8 47 19 58 39 8 16 26 32 41 35 14 4 71 28 127 55 56 26 118 53 137 60 52 20 104 43 110 50 3 3 23 15 45 27 161 85 223 134 282 226 24 36 43 70 43 75 0 7 48 105 65 133 5 8 15 5 34 -12 42 -38 123 -73 241 -104 147 -38 298 -92 350 -124 8 -5 31 -17 50 -26 19 -8 42 -20 50 -25 31 -18 99 -49 109 -49 6 0 11 -4 11 -9 0 -5 13 -14 29 -21 22 -9 28 -16 23 -33 -2 -12 -11 -29 -18 -37 -19 -23 -31 -157 -19 -205 28 -105 76 -166 244 -315 38 -34 80 -61 109 -70 40 -13 78 -34 127 -72 6 -4 35 -26 65 -47 30 -22 62 -46 70 -53 27 -24 85 -64 103 -71 11 -4 17 -2 17 8 0 8 -6 15 -14 15 -8 0 -43 26 -77 58 -90 80 -185 152 -203 152 -8 0 -18 4 -21 10 -3 5 -13 10 -21 10 -44 0 -275 206 -307 273 -10 20 -21 38 -26 41 -4 3 -14 33 -21 66 -10 49 -10 72 0 123 7 34 20 71 29 82 10 11 30 40 46 64 16 24 41 48 55 54 14 6 32 16 40 23 14 11 37 16 215 45 65 11 134 9 258 -7 37 -5 47 -3 47 8 0 12 -28 18 -119 28 -121 13 -261 4 -349 -22 -39 -12 -70 -1 -150 49 -29 18 -56 33 -61 33 -5 0 -14 6 -20 14 -7 8 -27 18 -44 22 -48 10 -227 86 -227 95 0 5 5 9 10 9 6 0 10 18 10 40 0 31 -7 46 -34 73 -33 33 -57 43 -183 76 -40 11 -103 54 -103 70 0 4 62 11 138 14 129 6 208 18 330 48 28 8 52 17 52 21 0 5 7 8 15 8 19 0 96 54 124 89 13 15 37 61 53 102 26 62 31 88 31 157 0 49 -5 88 -12 95 -17 17 -13 47 7 54 9 3 30 15 46 26 16 12 47 30 70 41 51 27 58 46 17 46 -17 0 -31 -4 -31 -9 0 -5 -8 -11 -17 -14 -20 -6 -75 -38 -83 -48 -20 -24 -49 -27 -86 -10 -21 10 -55 24 -74 31 -19 7 -44 15 -55 20 -45 17 -92 30 -135 36 -48 8 -82 31 -176 122 -30 28 -59 52 -63 52 -5 0 -30 12 -56 27 -44 24 -46 27 -29 40 52 36 69 50 106 88 62 61 82 114 81 212 0 58 -5 88 -17 104 -9 13 -16 33 -16 44 0 49 -137 155 -201 155 -11 0 -27 4 -37 9 -9 4 -48 16 -87 25 -38 9 -88 25 -110 35 -22 11 -70 34 -107 51 -38 17 -68 35 -68 39 0 5 -8 11 -17 15 -18 6 -24 9 -103 61 -55 38 -140 77 -200 94 -25 6 -66 19 -91 26 -26 8 -57 15 -70 15 -12 0 -36 4 -53 9 -64 20 -102 28 -311 72 -27 6 -68 16 -90 23 -22 8 -60 19 -85 26 -60 16 -162 55 -190 71 -8 5 -22 12 -30 15 -17 7 -190 93 -225 112 -13 7 -40 28 -60 47 -19 19 -37 35 -39 35 -1 0 -22 18 -46 40 -24 22 -47 40 -52 40 -11 0 -38 25 -38 35 0 4 -27 40 -60 80 -48 59 -56 75 -42 78 9 3 -192 4 -448 4 -256 -1 -350 -3 -209 -4z m2499 -957 c53 -10 110 -28 110 -35 0 -13 67 -40 145 -59 160 -40 214 -69 263 -139 31 -44 52 -118 52 -184 0 -46 -6 -65 -35 -114 -44 -72 -59 -84 -110 -86 -22 -1 -53 -5 -70 -9 -26 -7 -22 -8 23 -9 28 0 52 -5 52 -10 0 -9 -74 -57 -120 -77 -58 -27 -109 -43 -165 -54 -33 -6 -76 -15 -95 -20 -150 -39 -478 -53 -600 -26 -91 20 -184 53 -214 77 -84 64 -136 152 -136 228 0 45 16 104 45 166 14 32 95 125 108 125 4 0 20 11 35 25 15 14 32 25 39 25 7 0 13 4 13 8 0 5 17 17 38 28 20 10 66 35 102 55 36 21 99 47 140 59 41 11 86 25 100 30 27 9 224 6 280 -4z m176 -1626 c30 0 54 -5 54 -10 0 -23 -231 -160 -271 -160 -6 0 -32 -6 -58 -14 -100 -31 -152 -39 -303 -44 -137 -4 -158 -3 -158 11 0 8 11 18 25 21 14 4 25 11 25 16 0 6 5 10 11 10 6 0 34 17 62 37 49 36 51 37 160 40 111 3 210 27 248 59 8 8 20 14 26 14 6 0 17 7 24 16 10 12 24 15 58 10 24 -3 68 -6 97 -6z m169 -75 c36 -40 45 -45 83 -45 24 0 58 -6 75 -14 18 -8 46 -20 64 -27 50 -21 73 -79 39 -101 -5 -4 -38 9 -73 28 -76 43 -124 44 -134 4 -14 -60 -21 -70 -56 -76 -26 -5 -41 -2 -61 13 -33 24 -38 50 -18 88 15 29 15 30 -19 62 -19 18 -35 37 -35 42 0 5 15 20 33 32 17 13 34 27 35 31 8 18 30 6 67 -37z m-1245 -850 c-14 -8 -32 -14 -40 -14 -8 0 -1 7 15 14 39 18 57 18 25 0z m-1611 -46 c20 -6 50 -17 66 -24 17 -7 43 -16 58 -20 39 -8 29 -29 -17 -36 -21 -3 -41 -11 -45 -17 -3 -6 -18 -13 -32 -17 -20 -5 -32 -1 -48 16 -11 13 -21 26 -21 31 0 4 -30 8 -66 8 -55 0 -65 3 -62 16 3 18 15 26 63 42 41 14 63 14 104 1z m1501 5 c0 -13 -47 -44 -77 -50 -35 -7 -90 3 -79 13 21 21 156 53 156 37z"/>
<path d="M3320 3570 c-8 -5 -30 -10 -49 -10 -45 0 -130 -24 -228 -65 -43 -18 -123 -86 -123 -104 0 -6 -4 -11 -10 -11 -17 0 -69 -93 -75 -135 -14 -92 83 -205 195 -228 14 -3 43 -10 65 -16 61 -16 300 -13 365 4 30 8 93 15 140 15 47 0 91 4 98 9 7 4 -13 6 -45 4 -54 -4 -57 -3 -39 11 11 9 28 16 39 16 44 0 117 53 157 113 36 54 40 65 40 123 l0 64 -63 63 c-98 96 -131 119 -216 146 -42 14 -231 14 -251 1z"/>
<path d="M1848 4663 c6 -2 18 -2 25 0 6 3 1 5 -13 5 -14 0 -19 -2 -12 -5z"/>
<path d="M1973 4663 c20 -2 54 -2 75 0 20 2 3 4 -38 4 -41 0 -58 -2 -37 -4z"/>
<path d="M2108 4663 c12 -2 32 -2 45 0 12 2 2 4 -23 4 -25 0 -35 -2 -22 -4z"/>
<path d="M2318 4663 c23 -2 59 -2 80 0 20 2 1 4 -43 4 -44 0 -61 -2 -37 -4z"/>
<path d="M2498 4663 c12 -2 32 -2 45 0 12 2 2 4 -23 4 -25 0 -35 -2 -22 -4z"/>
<path d="M2768 4663 c23 -2 59 -2 80 0 20 2 1 4 -43 4 -44 0 -61 -2 -37 -4z"/>
<path d="M3248 4663 c200 -2 524 -2 720 0 196 1 33 2 -363 2 -396 0 -557 -1 -357 -2z"/>
<path d="M4613 4663 c42 -2 112 -2 155 0 42 1 7 3 -78 3 -85 0 -120 -2 -77 -3z"/>
<path d="M4933 4663 c37 -2 96 -2 130 0 34 2 4 3 -68 3 -71 0 -99 -1 -62 -3z"/>
<path d="M3444 3869 c-11 -18 8 -28 95 -50 84 -21 108 -18 96 14 -13 34 -173 64 -191 36z"/>
<path d="M867 3369 c-55 -28 -66 -36 -121 -85 -15 -13 -31 -24 -36 -24 -6 0 -10 -7 -10 -15 0 -8 6 -15 14 -15 19 0 79 32 89 48 4 6 14 12 22 12 8 0 31 15 50 34 20 19 44 38 55 41 11 4 20 10 20 15 0 20 -31 16 -83 -11z"/>
<path d="M1320 3383 c-109 -7 -206 -32 -298 -77 -103 -50 -119 -60 -151 -88 -17 -16 -35 -28 -41 -28 -5 0 -10 -3 -10 -8 0 -4 -29 -39 -64 -77 -142 -155 -191 -338 -129 -485 36 -83 54 -106 139 -178 39 -33 98 -64 209 -109 51 -21 82 -25 211 -30 119 -5 162 -3 205 10 30 8 86 20 124 27 101 16 287 72 315 95 8 6 33 20 55 30 22 10 42 21 45 24 3 3 17 12 32 20 37 19 159 164 194 231 28 52 29 61 28 180 0 119 -2 127 -29 175 -16 28 -37 58 -46 67 -10 10 -21 24 -26 31 -14 23 -119 95 -175 121 -70 31 -103 42 -163 55 -50 10 -341 20 -425 14z m355 -31 c85 -8 122 -16 161 -36 29 -14 57 -26 62 -26 6 0 12 -4 14 -8 2 -4 28 -23 58 -41 122 -74 180 -175 180 -312 0 -85 -8 -116 -52 -206 -32 -65 -143 -181 -217 -226 -99 -62 -291 -121 -502 -156 -76 -13 -320 -15 -335 -3 -5 4 -36 17 -69 27 -33 11 -89 38 -125 61 -130 84 -178 149 -205 276 -23 109 5 201 108 352 108 157 298 271 517 310 36 6 277 -1 405 -12z"/>
<path d="M1370 3200 c-14 -4 -44 -8 -67 -9 -40 -1 -192 -54 -203 -71 -3 -4 -14 -10 -26 -14 -11 -3 -29 -14 -40 -24 -10 -10 -34 -28 -52 -41 -54 -38 -83 -109 -83 -200 0 -69 13 -126 32 -141 3 -3 13 -21 23 -40 17 -37 92 -90 126 -90 11 0 20 -4 20 -9 0 -11 49 -20 149 -28 78 -6 251 14 251 28 0 5 6 9 13 9 30 0 267 108 267 122 0 4 7 8 15 8 8 0 15 4 15 8 0 5 11 22 25 38 33 38 65 107 65 140 0 43 -55 126 -125 191 -90 83 -189 126 -300 129 -44 2 -91 -1 -105 -6z"/>
<path d="M1848 2573 c6 -2 18 -2 25 0 6 3 1 5 -13 5 -14 0 -19 -2 -12 -5z"/>
<path d="M1750 2560 c0 -5 5 -10 10 -10 6 0 10 5 10 10 0 6 -4 10 -10 10 -5 0 -10 -4 -10 -10z"/>
<path d="M1570 2485 c-14 -8 -40 -14 -59 -15 -34 0 -46 -3 -141 -35 l-45 -15 50 6 c28 3 61 9 75 14 14 5 51 14 82 20 31 6 62 18 68 26 16 18 2 18 -30 -1z"/>
<path d="M1238 2413 c12 -2 32 -2 45 0 12 2 2 4 -23 4 -25 0 -35 -2 -22 -4z"/>
<path d="M1043 2386 c-24 -11 -31 -26 -13 -26 6 0 18 4 28 9 9 5 28 14 42 19 l25 11 -30 -1 c-16 0 -40 -5 -52 -12z"/>
<path d="M4134 3075 c-10 -8 -27 -15 -36 -15 -18 0 -38 -28 -38 -53 0 -27 53 -39 151 -34 151 8 191 21 182 58 -12 44 -49 59 -147 59 -66 0 -98 -4 -112 -15z m214 -27 c12 -6 22 -14 22 -18 0 -18 -65 -33 -162 -38 -96 -4 -108 -3 -114 13 -11 29 32 54 101 58 74 4 123 -1 153 -15z"/>
<path d="M4204 2485 c-8 -21 4 -35 31 -35 24 0 35 16 28 38 -6 17 -52 15 -59 -3z"/>
<path d="M4043 2304 c-3 -9 0 -20 7 -24 20 -12 50 1 50 21 0 24 -48 26 -57 3z"/>
<path d="M1004 2234 c22 -58 19 -73 -20 -109 -41 -36 -87 -51 -129 -41 -23 6 -24 8 -12 34 15 35 40 56 102 87 36 18 42 24 23 21 -15 -3 -32 -7 -38 -11 -5 -3 -20 -8 -32 -10 -46 -9 -100 -99 -75 -124 14 -14 93 -13 137 2 24 8 41 24 56 52 37 68 38 80 8 100 -26 17 -27 17 -20 -1z"/>
<path d="M2152 2003 c4 -22 44 -29 64 -13 24 21 16 30 -27 30 -33 0 -40 -3 -37 -17z"/>
<path d="M341 1970 c-23 -22 -45 -40 -48 -40 -3 0 -13 -8 -22 -18 -37 -41 -195 -162 -211 -162 -10 0 -21 8 -24 18 -4 9 -13 33 -21 52 l-14 35 0 -66 -1 -67 35 -6 c27 -5 43 -1 77 20 24 15 45 30 48 33 6 7 52 46 125 106 89 73 140 118 143 126 2 5 -7 9 -20 9 -14 0 -42 -17 -67 -40z"/>
<path d="M2477 1909 c-25 -15 -11 -29 28 -29 40 0 53 15 26 29 -24 13 -31 13 -54 0z"/>
<path d="M2187 1833 c-4 -3 -7 -12 -7 -20 0 -16 46 -18 56 -2 11 19 -33 39 -49 22z"/>
</g>
</svg>